<svg width="78" height="65" viewBox="0 0 78 65" fill="none" xmlns="http://www.w3.org/2000/svg">
<g filter="url(#filter0_d_1_8844)">
<mask id="path-1-outside-1_1_8844" maskUnits="userSpaceOnUse" x="3.3975" y="-0.414978" width="70" height="57" fill="black">
<rect fill="white" x="3.3975" y="-0.414978" width="70" height="57"/>
<path d="M36.585 8.33502L34.085 11.21C30.835 8.79336 27.6267 7.58502 24.46 7.58502C22.3767 7.58502 20.585 8.08502 19.085 9.08502C17.585 10.085 16.4392 11.2934 15.6475 12.71C14.8975 14.1267 14.2933 15.9184 13.835 18.085C13.4183 20.2517 13.1475 22.1267 13.0225 23.71C12.9392 25.2934 12.8975 27.1475 12.8975 29.2725C12.8975 31.3559 13.2725 33.7309 14.0225 36.3975C14.8142 39.0225 16.1267 41.4809 17.96 43.7725C19.7933 46.0642 21.9183 47.21 24.335 47.21C26.96 47.21 30.9808 45.835 36.3975 43.085C36.9392 43.8767 37.6475 45.1892 38.5225 47.0225C33.2725 50.6475 28.585 52.46 24.46 52.46C21.7933 52.46 19.3558 51.6475 17.1475 50.0225C14.9392 48.3975 13.1892 46.335 11.8975 43.835C10.6475 41.335 9.66833 38.7309 8.96 36.0225C8.29333 33.2725 7.96 30.6684 7.96 28.21C7.96 25.5017 8.16833 22.8767 8.585 20.335C9.00167 17.7517 9.71 15.1684 10.71 12.585C11.71 10.0017 13.21 7.91836 15.21 6.33502C17.2517 4.75169 19.6683 3.96002 22.46 3.96002C24.8767 3.96002 27.3767 4.37669 29.96 5.21002C32.5433 6.04336 34.7517 7.08502 36.585 8.33502ZM66.2725 8.33502L63.7725 11.21C60.5225 8.79336 57.3142 7.58502 54.1475 7.58502C52.0642 7.58502 50.2725 8.08502 48.7725 9.08502C47.2725 10.085 46.1267 11.2934 45.335 12.71C44.585 14.1267 43.9808 15.9184 43.5225 18.085C43.1058 20.2517 42.835 22.1267 42.71 23.71C42.6267 25.2934 42.585 27.1475 42.585 29.2725C42.585 31.3559 42.96 33.7309 43.71 36.3975C44.5017 39.0225 45.8142 41.4809 47.6475 43.7725C49.4808 46.0642 51.6058 47.21 54.0225 47.21C56.6475 47.21 60.6683 45.835 66.085 43.085C66.6267 43.8767 67.335 45.1892 68.21 47.0225C62.96 50.6475 58.2725 52.46 54.1475 52.46C51.4808 52.46 49.0433 51.6475 46.835 50.0225C44.6267 48.3975 42.8767 46.335 41.585 43.835C40.335 41.335 39.3558 38.7309 38.6475 36.0225C37.9808 33.2725 37.6475 30.6684 37.6475 28.21C37.6475 25.5017 37.8558 22.8767 38.2725 20.335C38.6892 17.7517 39.3975 15.1684 40.3975 12.585C41.3975 10.0017 42.8975 7.91836 44.8975 6.33502C46.9392 4.75169 49.3558 3.96002 52.1475 3.96002C54.5642 3.96002 57.0642 4.37669 59.6475 5.21002C62.2308 6.04336 64.4392 7.08502 66.2725 8.33502Z"/>
</mask>
<path d="M36.585 8.33502L34.085 11.21C30.835 8.79336 27.6267 7.58502 24.46 7.58502C22.3767 7.58502 20.585 8.08502 19.085 9.08502C17.585 10.085 16.4392 11.2934 15.6475 12.71C14.8975 14.1267 14.2933 15.9184 13.835 18.085C13.4183 20.2517 13.1475 22.1267 13.0225 23.71C12.9392 25.2934 12.8975 27.1475 12.8975 29.2725C12.8975 31.3559 13.2725 33.7309 14.0225 36.3975C14.8142 39.0225 16.1267 41.4809 17.96 43.7725C19.7933 46.0642 21.9183 47.21 24.335 47.21C26.96 47.21 30.9808 45.835 36.3975 43.085C36.9392 43.8767 37.6475 45.1892 38.5225 47.0225C33.2725 50.6475 28.585 52.46 24.46 52.46C21.7933 52.46 19.3558 51.6475 17.1475 50.0225C14.9392 48.3975 13.1892 46.335 11.8975 43.835C10.6475 41.335 9.66833 38.7309 8.96 36.0225C8.29333 33.2725 7.96 30.6684 7.96 28.21C7.96 25.5017 8.16833 22.8767 8.585 20.335C9.00167 17.7517 9.71 15.1684 10.71 12.585C11.71 10.0017 13.21 7.91836 15.21 6.33502C17.2517 4.75169 19.6683 3.96002 22.46 3.96002C24.8767 3.96002 27.3767 4.37669 29.96 5.21002C32.5433 6.04336 34.7517 7.08502 36.585 8.33502ZM66.2725 8.33502L63.7725 11.21C60.5225 8.79336 57.3142 7.58502 54.1475 7.58502C52.0642 7.58502 50.2725 8.08502 48.7725 9.08502C47.2725 10.085 46.1267 11.2934 45.335 12.71C44.585 14.1267 43.9808 15.9184 43.5225 18.085C43.1058 20.2517 42.835 22.1267 42.71 23.71C42.6267 25.2934 42.585 27.1475 42.585 29.2725C42.585 31.3559 42.96 33.7309 43.71 36.3975C44.5017 39.0225 45.8142 41.4809 47.6475 43.7725C49.4808 46.0642 51.6058 47.21 54.0225 47.21C56.6475 47.21 60.6683 45.835 66.085 43.085C66.6267 43.8767 67.335 45.1892 68.21 47.0225C62.96 50.6475 58.2725 52.46 54.1475 52.46C51.4808 52.46 49.0433 51.6475 46.835 50.0225C44.6267 48.3975 42.8767 46.335 41.585 43.835C40.335 41.335 39.3558 38.7309 38.6475 36.0225C37.9808 33.2725 37.6475 30.6684 37.6475 28.21C37.6475 25.5017 37.8558 22.8767 38.2725 20.335C38.6892 17.7517 39.3975 15.1684 40.3975 12.585C41.3975 10.0017 42.8975 7.91836 44.8975 6.33502C46.9392 4.75169 49.3558 3.96002 52.1475 3.96002C54.5642 3.96002 57.0642 4.37669 59.6475 5.21002C62.2308 6.04336 64.4392 7.08502 66.2725 8.33502Z" fill="#2F2F2F"/>
<path d="M36.585 8.33502L39.5732 10.9335L42.496 7.57236L38.8158 5.06316L36.585 8.33502ZM34.085 11.21L31.7221 14.3878L34.666 16.5768L37.0732 13.8085L34.085 11.21ZM15.6475 12.71L12.1906 10.7782L12.1687 10.8175L12.1477 10.8572L15.6475 12.71ZM13.835 18.085L9.96073 17.2655L9.95316 17.3013L9.94625 17.3372L13.835 18.085ZM13.0225 23.71L9.07478 23.3984L9.0707 23.4501L9.06797 23.5019L13.0225 23.71ZM14.0225 36.3975L10.2104 37.4697L10.2205 37.5054L10.2312 37.5409L14.0225 36.3975ZM36.3975 43.085L39.6657 40.8489L37.7034 37.9809L34.6048 39.554L36.3975 43.085ZM38.5225 47.0225L40.7725 50.2812L43.5503 48.3632L42.0963 45.3168L38.5225 47.0225ZM11.8975 43.835L8.35557 45.606L8.3673 45.6294L8.37933 45.6527L11.8975 43.835ZM8.96 36.0225L5.11147 36.9555L5.11986 36.9901L5.12886 37.0245L8.96 36.0225ZM8.585 20.335L12.4928 20.9757L12.4945 20.9656L8.585 20.335ZM15.21 6.33502L12.7832 3.20575L12.7676 3.2179L12.752 3.2302L15.21 6.33502ZM36.585 8.33502L33.5968 5.73655L31.0968 8.61155L34.085 11.21L37.0732 13.8085L39.5732 10.9335L36.585 8.33502ZM34.085 11.21L36.4479 8.03227C32.7066 5.25025 28.6893 3.62502 24.46 3.62502V7.58502L24.46 11.545C26.564 11.545 28.9634 12.3365 31.7221 14.3878L34.085 11.21ZM24.46 7.58502V3.62502C21.7198 3.62502 19.1356 4.29198 16.8884 5.7901L19.085 9.08502L21.2816 12.3799C22.0344 11.8781 23.0336 11.545 24.46 11.545L24.46 7.58502ZM19.085 9.08502L16.8884 5.7901C14.925 7.09906 13.3211 8.7553 12.1906 10.7782L15.6475 12.71L19.1044 14.6418C19.5572 13.8314 20.245 13.071 21.2816 12.3799L19.085 9.08502ZM15.6475 12.71L12.1477 10.8572C11.1739 12.6965 10.4685 14.8651 9.96073 17.2655L13.835 18.085L17.7093 18.9046C18.1182 16.9716 18.621 15.5569 19.1473 14.5629L15.6475 12.71ZM13.835 18.085L9.94625 17.3372C9.51165 19.5971 9.2148 21.6248 9.07478 23.3984L13.0225 23.71L16.9702 24.0217C17.0802 22.6286 17.325 20.9063 17.7237 18.8329L13.835 18.085ZM13.0225 23.71L9.06797 23.5019C8.98001 25.1732 8.9375 27.0998 8.9375 29.2725H12.8975L16.8575 29.2725C16.8575 27.1953 16.8983 25.4135 16.977 23.9182L13.0225 23.71ZM12.8975 29.2725H8.9375C8.9375 31.815 9.39242 34.5613 10.2104 37.4697L14.0225 36.3975L17.8346 35.3254C17.1526 32.9004 16.8575 30.8967 16.8575 29.2725L12.8975 29.2725ZM14.0225 36.3975L10.2312 37.5409C11.1788 40.6832 12.7411 43.5879 14.8678 46.2463L17.96 43.7725L21.0522 41.2987C19.5123 39.3738 18.4495 37.3618 17.8138 35.2541L14.0225 36.3975ZM17.96 43.7725L14.8678 46.2463C17.2743 49.2544 20.4562 51.17 24.335 51.17V47.21L24.335 43.25C23.3804 43.25 22.3124 42.8739 21.0522 41.2987L17.96 43.7725ZM24.335 47.21V51.17C27.9944 51.17 32.7658 49.3699 38.1902 46.616L36.3975 43.085L34.6048 39.554C29.1959 42.3001 25.9256 43.25 24.335 43.25L24.335 47.21ZM36.3975 43.085L33.1293 45.3212C33.4873 45.8445 34.087 46.9227 34.9487 48.7282L38.5225 47.0225L42.0963 45.3168C41.208 43.4557 40.391 41.9089 39.6657 40.8489L36.3975 43.085ZM38.5225 47.0225L36.2725 43.7639C31.3475 47.1644 27.4516 48.5 24.46 48.5V52.46V56.42C29.7184 56.42 35.1975 54.1306 40.7725 50.2812L38.5225 47.0225ZM24.46 52.46V48.5C22.663 48.5 21.0432 47.9726 19.4945 46.833L17.1475 50.0225L14.8005 53.2121C17.6684 55.3224 20.9237 56.42 24.46 56.42V52.46ZM17.1475 50.0225L19.4945 46.833C17.7901 45.5788 16.4353 43.9908 15.4157 42.0173L11.8975 43.835L8.37933 45.6527C9.94304 48.6793 12.0883 51.2163 14.8005 53.2121L17.1475 50.0225ZM11.8975 43.835L15.4394 42.0641C14.3124 39.81 13.4301 37.4636 12.7911 35.0205L8.96 36.0225L5.12886 37.0245C5.90657 39.9981 6.98257 42.86 8.35557 45.606L11.8975 43.835ZM8.96 36.0225L12.8085 35.0895C12.205 32.6001 11.92 30.311 11.92 28.21H7.96H4C4 31.0257 4.38163 33.9449 5.11147 36.9555L8.96 36.0225ZM7.96 28.21H11.92C11.92 25.7053 12.1126 23.295 12.4928 20.9757L8.585 20.335L4.67716 19.6944C4.22405 22.4584 4 25.2981 4 28.21H7.96ZM8.585 20.335L12.4945 20.9656C12.8646 18.6709 13.497 16.3549 14.403 14.0146L10.71 12.585L7.01703 11.1555C5.92296 13.9818 5.13874 16.8325 4.67552 19.7045L8.585 20.335ZM10.71 12.585L14.403 14.0146C15.1707 12.0313 16.2688 10.5475 17.668 9.43984L15.21 6.33502L12.752 3.2302C10.1512 5.28919 8.24933 7.97205 7.01703 11.1555L10.71 12.585ZM15.21 6.33502L17.6368 9.46429C18.9268 8.46386 20.4717 7.92002 22.46 7.92002L22.46 3.96002V2.19345e-05C18.865 2.19345e-05 15.5765 1.03952 12.7832 3.20575L15.21 6.33502ZM22.46 3.96002L22.46 7.92002C24.4166 7.92002 26.506 8.25675 28.7443 8.97879L29.96 5.21002L31.1757 1.44126C28.2474 0.496624 25.3368 2.19345e-05 22.46 2.19345e-05V3.96002ZM29.96 5.21002L28.7443 8.97879C31.0444 9.72077 32.8943 10.6115 34.3542 11.6069L36.585 8.33502L38.8158 5.06316C36.609 3.55852 34.0422 2.36594 31.1757 1.44126L29.96 5.21002ZM66.2725 8.33502L69.2607 10.9335L72.1835 7.57236L68.5033 5.06316L66.2725 8.33502ZM63.7725 11.21L61.4096 14.3878L64.3535 16.5768L66.7607 13.8085L63.7725 11.21ZM45.335 12.71L41.8781 10.7782L41.8562 10.8175L41.8352 10.8572L45.335 12.71ZM43.5225 18.085L39.6482 17.2655L39.6407 17.3013L39.6338 17.3372L43.5225 18.085ZM42.71 23.71L38.7623 23.3984L38.7582 23.4501L38.7555 23.5019L42.71 23.71ZM43.71 36.3975L39.8979 37.4697L39.908 37.5054L39.9187 37.5409L43.71 36.3975ZM66.085 43.085L69.3532 40.8489L67.3909 37.9809L64.2923 39.554L66.085 43.085ZM68.21 47.0225L70.46 50.2812L73.2378 48.3632L71.7838 45.3168L68.21 47.0225ZM41.585 43.835L38.0431 45.606L38.0548 45.6294L38.0668 45.6527L41.585 43.835ZM38.6475 36.0225L34.799 36.9555L34.8074 36.9901L34.8164 37.0245L38.6475 36.0225ZM38.2725 20.335L42.1804 20.9757L42.182 20.9656L38.2725 20.335ZM44.8975 6.33502L42.4707 3.20575L42.4551 3.2179L42.4395 3.2302L44.8975 6.33502ZM66.2725 8.33502L63.2843 5.73655L60.7843 8.61155L63.7725 11.21L66.7607 13.8085L69.2607 10.9335L66.2725 8.33502ZM63.7725 11.21L66.1354 8.03227C62.3941 5.25025 58.3768 3.62502 54.1475 3.62502V7.58502V11.545C56.2515 11.545 58.6509 12.3365 61.4096 14.3878L63.7725 11.21ZM54.1475 7.58502V3.62502C51.4073 3.62502 48.8231 4.29198 46.5759 5.7901L48.7725 9.08502L50.9691 12.3799C51.7219 11.8781 52.7211 11.545 54.1475 11.545V7.58502ZM48.7725 9.08502L46.5759 5.7901C44.6125 7.09906 43.0086 8.7553 41.8781 10.7782L45.335 12.71L48.7919 14.6418C49.2447 13.8314 49.9325 13.071 50.9691 12.3799L48.7725 9.08502ZM45.335 12.71L41.8352 10.8572C40.8615 12.6965 40.156 14.8651 39.6482 17.2655L43.5225 18.085L47.3968 18.9046C47.8057 16.9716 48.3085 15.5569 48.8348 14.5629L45.335 12.71ZM43.5225 18.085L39.6338 17.3372C39.1992 19.5971 38.9023 21.6248 38.7623 23.3984L42.71 23.71L46.6577 24.0217C46.7677 22.6286 47.0125 20.9063 47.4112 18.8329L43.5225 18.085ZM42.71 23.71L38.7555 23.5019C38.6675 25.1732 38.625 27.0998 38.625 29.2725H42.585H46.545C46.545 27.1953 46.5858 25.4135 46.6645 23.9182L42.71 23.71ZM42.585 29.2725H38.625C38.625 31.815 39.0799 34.5613 39.8979 37.4697L43.71 36.3975L47.5221 35.3254C46.8401 32.9004 46.545 30.8967 46.545 29.2725H42.585ZM43.71 36.3975L39.9187 37.5409C40.8663 40.6832 42.4286 43.5879 44.5553 46.2463L47.6475 43.7725L50.7397 41.2987C49.1998 39.3738 48.137 37.3618 47.5013 35.2541L43.71 36.3975ZM47.6475 43.7725L44.5553 46.2463C46.9618 49.2544 50.1437 51.17 54.0225 51.17V47.21V43.25C53.0679 43.25 51.9999 42.8739 50.7397 41.2987L47.6475 43.7725ZM54.0225 47.21V51.17C57.6819 51.17 62.4533 49.3699 67.8777 46.616L66.085 43.085L64.2923 39.554C58.8834 42.3001 55.6131 43.25 54.0225 43.25V47.21ZM66.085 43.085L62.8168 45.3212C63.1748 45.8445 63.7745 46.9227 64.6362 48.7282L68.21 47.0225L71.7838 45.3168C70.8955 43.4557 70.0785 41.9089 69.3532 40.8489L66.085 43.085ZM68.21 47.0225L65.96 43.7639C61.035 47.1644 57.1391 48.5 54.1475 48.5V52.46L54.1475 56.42C59.4059 56.42 64.885 54.1306 70.46 50.2812L68.21 47.0225ZM54.1475 52.46V48.5C52.3505 48.5 50.7307 47.9726 49.182 46.833L46.835 50.0225L44.488 53.2121C47.3559 55.3224 50.6112 56.42 54.1475 56.42L54.1475 52.46ZM46.835 50.0225L49.182 46.833C47.4776 45.5788 46.1228 43.9908 45.1032 42.0173L41.585 43.835L38.0668 45.6527C39.6305 48.6793 41.7757 51.2163 44.488 53.2121L46.835 50.0225ZM41.585 43.835L45.1269 42.0641C43.9999 39.81 43.1176 37.4636 42.4786 35.0205L38.6475 36.0225L34.8164 37.0245C35.5941 39.9981 36.6701 42.86 38.0431 45.606L41.585 43.835ZM38.6475 36.0225L42.496 35.0895C41.8925 32.6001 41.6075 30.311 41.6075 28.21H37.6475H33.6875C33.6875 31.0257 34.0691 33.9449 34.799 36.9555L38.6475 36.0225ZM37.6475 28.21H41.6075C41.6075 25.7053 41.8001 23.295 42.1803 20.9757L38.2725 20.335L34.3647 19.6944C33.9115 22.4584 33.6875 25.2981 33.6875 28.21H37.6475ZM38.2725 20.335L42.182 20.9656C42.5521 18.6709 43.1845 16.3549 44.0905 14.0146L40.3975 12.585L36.7045 11.1555C35.6105 13.9818 34.8262 16.8325 34.363 19.7045L38.2725 20.335ZM40.3975 12.585L44.0905 14.0146C44.8582 12.0313 45.9563 10.5475 47.3555 9.43984L44.8975 6.33502L42.4395 3.2302C39.8387 5.28919 37.9368 7.97205 36.7045 11.1555L40.3975 12.585ZM44.8975 6.33502L47.3243 9.46429C48.6143 8.46386 50.1592 7.92002 52.1475 7.92002V3.96002V2.19345e-05C48.5525 2.19345e-05 45.264 1.03952 42.4707 3.20575L44.8975 6.33502ZM52.1475 3.96002V7.92002C54.1041 7.92002 56.1935 8.25675 58.4318 8.97879L59.6475 5.21002L60.8632 1.44126C57.9349 0.496624 55.0243 2.19345e-05 52.1475 2.19345e-05V3.96002ZM59.6475 5.21002L58.4318 8.97879C60.7319 9.72077 62.5818 10.6115 64.0417 11.6069L66.2725 8.33502L68.5033 5.06316C66.2965 3.55852 63.7297 2.36594 60.8632 1.44126L59.6475 5.21002Z" fill="#2F2F2F" mask="url(#path-1-outside-1_1_8844)"/>
</g>
<defs>
<filter id="filter0_d_1_8844" x="0" y="0" width="77.2378" height="64.42" filterUnits="userSpaceOnUse" color-interpolation-filters="sRGB">
<feFlood flood-opacity="0" result="BackgroundImageFix"/>
<feColorMatrix in="SourceAlpha" type="matrix" values="0 0 0 0 0 0 0 0 0 0 0 0 0 0 0 0 0 0 127 0" result="hardAlpha"/>
<feOffset dy="4"/>
<feGaussianBlur stdDeviation="2"/>
<feComposite in2="hardAlpha" operator="out"/>
<feColorMatrix type="matrix" values="0 0 0 0 0 0 0 0 0 0 0 0 0 0 0 0 0 0 0.25 0"/>
<feBlend mode="normal" in2="BackgroundImageFix" result="effect1_dropShadow_1_8844"/>
<feBlend mode="normal" in="SourceGraphic" in2="effect1_dropShadow_1_8844" result="shape"/>
</filter>
</defs>
</svg>
