<svg width="18" height="15" viewBox="0 0 18 15" fill="none" xmlns="http://www.w3.org/2000/svg">
<mask id="path-1-outside-1_1_8844" maskUnits="userSpaceOnUse" x="-0.640625" y="-0.59375" width="18" height="15" fill="black">
<rect fill="white" x="-0.640625" y="-0.59375" width="18" height="15"/>
<path d="M8.15625 2.09375L7.53125 2.8125C6.71875 2.20833 5.91667 1.90625 5.125 1.90625C4.60417 1.90625 4.15625 2.03125 3.78125 2.28125C3.40625 2.53125 3.11979 2.83333 2.92188 3.1875C2.73438 3.54167 2.58333 3.98958 2.46875 4.53125C2.36458 5.07292 2.29688 5.54167 2.26563 5.9375C2.24479 6.33333 2.23438 6.79688 2.23438 7.32812C2.23438 7.84896 2.32813 8.44271 2.51563 9.10938C2.71354 9.76562 3.04167 10.3802 3.5 10.9531C3.95833 11.526 4.48958 11.8125 5.09375 11.8125C5.75 11.8125 6.75521 11.4687 8.10938 10.7812C8.24479 10.9792 8.42188 11.3073 8.64063 11.7656C7.32813 12.6719 6.15625 13.125 5.125 13.125C4.45833 13.125 3.84896 12.9219 3.29688 12.5156C2.74479 12.1094 2.30729 11.5938 1.98438 10.9688C1.67188 10.3438 1.42708 9.69271 1.25 9.01562C1.08333 8.32812 1 7.67708 1 7.0625C1 6.38542 1.05208 5.72917 1.15625 5.09375C1.26042 4.44792 1.4375 3.80208 1.6875 3.15625C1.9375 2.51042 2.3125 1.98958 2.8125 1.59375C3.32292 1.19792 3.92708 1 4.625 1C5.22917 1 5.85417 1.10417 6.5 1.3125C7.14583 1.52083 7.69792 1.78125 8.15625 2.09375ZM15.5781 2.09375L14.9531 2.8125C14.1406 2.20833 13.3385 1.90625 12.5469 1.90625C12.026 1.90625 11.5781 2.03125 11.2031 2.28125C10.8281 2.53125 10.5417 2.83333 10.3438 3.1875C10.1562 3.54167 10.0052 3.98958 9.89063 4.53125C9.78646 5.07292 9.71875 5.54167 9.6875 5.9375C9.66667 6.33333 9.65625 6.79687 9.65625 7.32812C9.65625 7.84896 9.75 8.44271 9.9375 9.10937C10.1354 9.76562 10.4635 10.3802 10.9219 10.9531C11.3802 11.526 11.9115 11.8125 12.5156 11.8125C13.1719 11.8125 14.1771 11.4687 15.5313 10.7812C15.6667 10.9792 15.8438 11.3073 16.0625 11.7656C14.75 12.6719 13.5781 13.125 12.5469 13.125C11.8802 13.125 11.2708 12.9219 10.7188 12.5156C10.1667 12.1094 9.72917 11.5937 9.40625 10.9687C9.09375 10.3437 8.84896 9.69271 8.67188 9.01562C8.50521 8.32812 8.42188 7.67708 8.42188 7.0625C8.42188 6.38542 8.47396 5.72917 8.57813 5.09375C8.68229 4.44792 8.85938 3.80208 9.10938 3.15625C9.35938 2.51042 9.73438 1.98958 10.2344 1.59375C10.7448 1.19792 11.349 1 12.0469 1C12.651 1 13.276 1.10417 13.9219 1.3125C14.5677 1.52083 15.1198 1.78125 15.5781 2.09375Z"/>
</mask>
<path d="M8.15625 2.09375L7.53125 2.8125C6.71875 2.20833 5.91667 1.90625 5.125 1.90625C4.60417 1.90625 4.15625 2.03125 3.78125 2.28125C3.40625 2.53125 3.11979 2.83333 2.92188 3.1875C2.73438 3.54167 2.58333 3.98958 2.46875 4.53125C2.36458 5.07292 2.29688 5.54167 2.26563 5.9375C2.24479 6.33333 2.23438 6.79688 2.23438 7.32812C2.23438 7.84896 2.32813 8.44271 2.51563 9.10938C2.71354 9.76562 3.04167 10.3802 3.5 10.9531C3.95833 11.526 4.48958 11.8125 5.09375 11.8125C5.75 11.8125 6.75521 11.4687 8.10938 10.7812C8.24479 10.9792 8.42188 11.3073 8.64063 11.7656C7.32813 12.6719 6.15625 13.125 5.125 13.125C4.45833 13.125 3.84896 12.9219 3.29688 12.5156C2.74479 12.1094 2.30729 11.5938 1.98438 10.9688C1.67188 10.3438 1.42708 9.69271 1.25 9.01562C1.08333 8.32812 1 7.67708 1 7.0625C1 6.38542 1.05208 5.72917 1.15625 5.09375C1.26042 4.44792 1.4375 3.80208 1.6875 3.15625C1.9375 2.51042 2.3125 1.98958 2.8125 1.59375C3.32292 1.19792 3.92708 1 4.625 1C5.22917 1 5.85417 1.10417 6.5 1.3125C7.14583 1.52083 7.69792 1.78125 8.15625 2.09375ZM15.5781 2.09375L14.9531 2.8125C14.1406 2.20833 13.3385 1.90625 12.5469 1.90625C12.026 1.90625 11.5781 2.03125 11.2031 2.28125C10.8281 2.53125 10.5417 2.83333 10.3438 3.1875C10.1562 3.54167 10.0052 3.98958 9.89063 4.53125C9.78646 5.07292 9.71875 5.54167 9.6875 5.9375C9.66667 6.33333 9.65625 6.79687 9.65625 7.32812C9.65625 7.84896 9.75 8.44271 9.9375 9.10937C10.1354 9.76562 10.4635 10.3802 10.9219 10.9531C11.3802 11.526 11.9115 11.8125 12.5156 11.8125C13.1719 11.8125 14.1771 11.4687 15.5313 10.7812C15.6667 10.9792 15.8438 11.3073 16.0625 11.7656C14.75 12.6719 13.5781 13.125 12.5469 13.125C11.8802 13.125 11.2708 12.9219 10.7188 12.5156C10.1667 12.1094 9.72917 11.5937 9.40625 10.9687C9.09375 10.3437 8.84896 9.69271 8.67188 9.01562C8.50521 8.32812 8.42188 7.67708 8.42188 7.0625C8.42188 6.38542 8.47396 5.72917 8.57813 5.09375C8.68229 4.44792 8.85938 3.80208 9.10938 3.15625C9.35938 2.51042 9.73438 1.98958 10.2344 1.59375C10.7448 1.19792 11.349 1 12.0469 1C12.651 1 13.276 1.10417 13.9219 1.3125C14.5677 1.52083 15.1198 1.78125 15.5781 2.09375Z" fill="#2F2F2F"/>
<path d="M8.15625 2.09375L8.91086 2.74993L9.64892 1.90116L8.71959 1.26752L8.15625 2.09375ZM7.53125 2.8125L6.93455 3.61496L7.67796 4.16776L8.28586 3.46868L7.53125 2.8125ZM2.92188 3.1875L2.04893 2.69968L2.0434 2.70958L2.03809 2.71961L2.92188 3.1875ZM2.46875 4.53125L1.4904 4.32429L1.48849 4.33333L1.48674 4.3424L2.46875 4.53125ZM2.26563 5.9375L1.26873 5.8588L1.2677 5.87186L1.26701 5.88494L2.26563 5.9375ZM2.51563 9.10938L1.55297 9.38012L1.55551 9.38914L1.55822 9.39812L2.51563 9.10938ZM8.10938 10.7812L8.93468 10.2166L8.43915 9.49233L7.65668 9.88958L8.10938 10.7812ZM8.64063 11.7656L9.20882 12.5885L9.91027 12.1042L9.54311 11.3349L8.64063 11.7656ZM1.98438 10.9688L1.08987 11.416L1.09595 11.4278L1.98438 10.9688ZM1.25 9.01562L0.27815 9.25123L0.280267 9.25996L0.282541 9.26865L1.25 9.01562ZM1.15625 5.09375L2.14308 5.25553L2.14349 5.25298L1.15625 5.09375ZM2.8125 1.59375L2.19965 0.803491L2.1918 0.809704L2.8125 1.59375ZM8.15625 2.09375L7.40164 1.43757L6.77664 2.15632L7.53125 2.8125L8.28586 3.46868L8.91086 2.74993L8.15625 2.09375ZM7.53125 2.8125L8.12795 2.01004C7.19138 1.31361 6.18502 0.90625 5.125 0.90625L5.125 1.90625V2.90625C5.64832 2.90625 6.24612 3.10306 6.93455 3.61496L7.53125 2.8125ZM5.125 1.90625L5.125 0.90625C4.43828 0.90625 3.79023 1.07341 3.22655 1.4492L3.78125 2.28125L4.33595 3.1133C4.52227 2.98909 4.77005 2.90625 5.125 2.90625V1.90625ZM3.78125 2.28125L3.22655 1.4492C2.73452 1.77722 2.3324 2.19241 2.04893 2.69968L2.92188 3.1875L3.79482 3.67532C3.90718 3.47426 4.07798 3.28528 4.33595 3.1133L3.78125 2.28125ZM2.92188 3.1875L2.03809 2.71961C1.79408 3.18051 1.61747 3.72361 1.4904 4.32429L2.46875 4.53125L3.4471 4.73821C3.5492 4.25556 3.67467 3.90283 3.80566 3.65539L2.92188 3.1875ZM2.46875 4.53125L1.48674 4.3424C1.37805 4.90762 1.30377 5.41492 1.26873 5.8588L2.26563 5.9375L3.26252 6.0162C3.28998 5.66842 3.35112 5.23821 3.45076 4.7201L2.46875 4.53125ZM2.26563 5.9375L1.26701 5.88494C1.245 6.303 1.23438 6.78482 1.23438 7.32812H2.23438L3.23438 7.32812C3.23438 6.80893 3.24458 6.36367 3.26424 5.99006L2.26563 5.9375ZM2.23438 7.32812H1.23438C1.23438 7.9649 1.34831 8.65242 1.55297 9.38012L2.51563 9.10938L3.47828 8.83863C3.30794 8.233 3.23438 7.73302 3.23438 7.32812L2.23438 7.32812ZM2.51563 9.10938L1.55822 9.39812C1.79553 10.185 2.18672 10.9123 2.71913 11.5778L3.5 10.9531L4.28087 10.3284C3.89662 9.84812 3.63155 9.34626 3.47303 8.82063L2.51563 9.10938ZM3.5 10.9531L2.71913 11.5778C3.3222 12.3317 4.12036 12.8125 5.09375 12.8125V11.8125V10.8125C4.8588 10.8125 4.59446 10.7204 4.28087 10.3284L3.5 10.9531ZM5.09375 11.8125V12.8125C6.01121 12.8125 7.20596 12.3614 8.56207 11.6729L8.10938 10.7812L7.65668 9.88958C6.30446 10.5761 5.48879 10.8125 5.09375 10.8125V11.8125ZM8.10938 10.7812L7.28407 11.3459C7.37312 11.4761 7.52275 11.7451 7.73814 12.1964L8.64063 11.7656L9.54311 11.3349C9.321 10.8695 9.11646 10.4822 8.93468 10.2166L8.10938 10.7812ZM8.64063 11.7656L8.07243 10.9427C6.84202 11.7923 5.87003 12.125 5.125 12.125V13.125V14.125C6.44247 14.125 7.81423 13.5515 9.20882 12.5885L8.64063 11.7656ZM5.125 13.125V12.125C4.67794 12.125 4.27507 11.9939 3.88956 11.7102L3.29688 12.5156L2.70419 13.3211C3.42285 13.8499 4.23873 14.125 5.125 14.125V13.125ZM3.29688 12.5156L3.88956 11.7102C3.46472 11.3976 3.12702 11.0018 2.8728 10.5097L1.98438 10.9688L1.09595 11.4278C1.48756 12.1857 2.02486 12.8212 2.70419 13.3211L3.29688 12.5156ZM1.98438 10.9688L2.8788 10.5215C2.59736 9.95866 2.37702 9.3727 2.21746 8.7626L1.25 9.01562L0.282541 9.26865C0.477142 10.0127 0.746389 10.7288 1.08995 11.416L1.98438 10.9688ZM1.25 9.01562L2.22185 8.78002C2.07114 8.15833 2 7.58684 2 7.0625H1H0C0 7.76733 0.0955305 8.49792 0.27815 9.25123L1.25 9.01562ZM1 7.0625H2C2 6.43684 2.04812 5.8348 2.14308 5.25553L1.15625 5.09375L0.169422 4.93197C0.0560515 5.62354 0 6.33399 0 7.0625H1ZM1.15625 5.09375L2.14349 5.25298C2.2359 4.68003 2.39382 4.10171 2.62007 3.51724L1.6875 3.15625L0.754932 2.79526C0.481178 3.50245 0.284931 4.2158 0.169009 4.93452L1.15625 5.09375ZM1.6875 3.15625L2.62007 3.51724C2.81141 3.02295 3.08493 2.65351 3.4332 2.3778L2.8125 1.59375L2.1918 0.809704C1.54007 1.32565 1.06359 1.99788 0.754932 2.79526L1.6875 3.15625ZM2.8125 1.59375L3.42532 2.38397C3.74593 2.13533 4.12995 2 4.625 2L4.625 1V0C3.72422 0 2.8999 0.260499 2.19968 0.80353L2.8125 1.59375ZM4.625 1L4.625 2C5.11298 2 5.63429 2.08398 6.193 2.26421L6.5 1.3125L6.807 0.360791C6.07404 0.124352 5.34535 0 4.625 0V1ZM6.5 1.3125L6.193 2.26421C6.76732 2.44947 7.22889 2.67178 7.59291 2.91998L8.15625 2.09375L8.71959 1.26752C8.16694 0.890719 7.52435 0.592192 6.807 0.360791L6.5 1.3125ZM15.5781 2.09375L16.3327 2.74993L17.0708 1.90116L16.1415 1.26752L15.5781 2.09375ZM14.9531 2.8125L14.3564 3.61496L15.0998 4.16776L15.7077 3.46868L14.9531 2.8125ZM10.3438 3.1875L9.47081 2.69968L9.46527 2.70958L9.45996 2.71961L10.3438 3.1875ZM9.89063 4.53125L8.91228 4.32429L8.91036 4.33333L8.90862 4.3424L9.89063 4.53125ZM9.6875 5.9375L8.6906 5.8588L8.68957 5.87186L8.68888 5.88494L9.6875 5.9375ZM9.9375 9.10937L8.97485 9.38012L8.97739 9.38914L8.98009 9.39812L9.9375 9.10937ZM15.5313 10.7812L16.3566 10.2166L15.861 9.49233L15.0786 9.88958L15.5313 10.7812ZM16.0625 11.7656L16.6307 12.5885L17.3321 12.1042L16.965 11.3349L16.0625 11.7656ZM9.40625 10.9687L8.51174 11.416L8.51782 11.4278L9.40625 10.9687ZM8.67188 9.01562L7.70003 9.25123L7.70214 9.25996L7.70442 9.26865L8.67188 9.01562ZM8.57813 5.09375L9.56496 5.25553L9.56537 5.25298L8.57813 5.09375ZM10.2344 1.59375L9.62152 0.803491L9.61367 0.809704L10.2344 1.59375ZM15.5781 2.09375L14.8235 1.43757L14.1985 2.15632L14.9531 2.8125L15.7077 3.46868L16.3327 2.74993L15.5781 2.09375ZM14.9531 2.8125L15.5498 2.01004C14.6133 1.31361 13.6069 0.90625 12.5469 0.90625V1.90625V2.90625C13.0702 2.90625 13.668 3.10306 14.3564 3.61496L14.9531 2.8125ZM12.5469 1.90625V0.90625C11.8602 0.90625 11.2121 1.07341 10.6484 1.4492L11.2031 2.28125L11.7578 3.1133C11.9441 2.98909 12.1919 2.90625 12.5469 2.90625V1.90625ZM11.2031 2.28125L10.6484 1.4492C10.1564 1.77722 9.75428 2.19241 9.47081 2.69968L10.3438 3.1875L11.2167 3.67532C11.3291 3.47426 11.4999 3.28528 11.7578 3.1133L11.2031 2.28125ZM10.3438 3.1875L9.45996 2.71961C9.21596 3.18051 9.03934 3.72361 8.91228 4.32429L9.89063 4.53125L10.869 4.73821C10.9711 4.25556 11.0965 3.90283 11.2275 3.65539L10.3438 3.1875ZM9.89063 4.53125L8.90862 4.3424C8.79992 4.90762 8.72565 5.41492 8.6906 5.8588L9.6875 5.9375L10.6844 6.0162C10.7119 5.66842 10.773 5.23821 10.8726 4.7201L9.89063 4.53125ZM9.6875 5.9375L8.68888 5.88494C8.66688 6.303 8.65625 6.78482 8.65625 7.32812H9.65625H10.6563C10.6563 6.80893 10.6665 6.36367 10.6861 5.99006L9.6875 5.9375ZM9.65625 7.32812H8.65625C8.65625 7.9649 8.77018 8.65242 8.97485 9.38012L9.9375 9.10937L10.9002 8.83863C10.7298 8.233 10.6563 7.73302 10.6563 7.32812H9.65625ZM9.9375 9.10937L8.98009 9.39812C9.2174 10.185 9.60859 10.9123 10.141 11.5778L10.9219 10.9531L11.7027 10.3284C11.3185 9.84812 11.0534 9.34626 10.8949 8.82063L9.9375 9.10937ZM10.9219 10.9531L10.141 11.5778C10.7441 12.3317 11.5422 12.8125 12.5156 12.8125V11.8125V10.8125C12.2807 10.8125 12.0163 10.7204 11.7027 10.3284L10.9219 10.9531ZM12.5156 11.8125V12.8125C13.4331 12.8125 14.6278 12.3614 15.9839 11.6729L15.5313 10.7812L15.0786 9.88958C13.7263 10.5761 12.9107 10.8125 12.5156 10.8125V11.8125ZM15.5313 10.7812L14.7059 11.3459C14.795 11.4761 14.9446 11.7451 15.16 12.1964L16.0625 11.7656L16.965 11.3349C16.7429 10.8695 16.5383 10.4822 16.3566 10.2166L15.5313 10.7812ZM16.0625 11.7656L15.4943 10.9427C14.2639 11.7923 13.2919 12.125 12.5469 12.125L12.5469 13.125V14.125C13.8643 14.125 15.2361 13.5515 16.6307 12.5885L16.0625 11.7656ZM12.5469 13.125L12.5469 12.125C12.0998 12.125 11.6969 11.9939 11.3114 11.7102L10.7188 12.5156L10.1261 13.3211C10.8447 13.8499 11.6606 14.125 12.5469 14.125V13.125ZM10.7188 12.5156L11.3114 11.7102C10.8866 11.3976 10.5489 11.0018 10.2947 10.5097L9.40625 10.9687L8.51782 11.4278C8.90944 12.1857 9.44674 12.8212 10.1261 13.3211L10.7188 12.5156ZM9.40625 10.9687L10.3007 10.5215C10.0192 9.95866 9.7989 9.3727 9.63933 8.7626L8.67188 9.01562L7.70442 9.26865C7.89902 10.0127 8.16826 10.7288 8.51182 11.416L9.40625 10.9687ZM8.67188 9.01562L9.64373 8.78002C9.49301 8.15833 9.42188 7.58684 9.42188 7.0625H8.42188H7.42188C7.42188 7.76733 7.51741 8.49792 7.70003 9.25123L8.67188 9.01562ZM8.42188 7.0625H9.42188C9.42188 6.43684 9.46999 5.8348 9.56495 5.25553L8.57813 5.09375L7.5913 4.93197C7.47793 5.62354 7.42188 6.33399 7.42188 7.0625H8.42188ZM8.57813 5.09375L9.56537 5.25298C9.65778 4.68003 9.8157 4.10171 10.0419 3.51724L9.10938 3.15625L8.17681 2.79526C7.90305 3.50245 7.70681 4.2158 7.59088 4.93452L8.57813 5.09375ZM9.10938 3.15625L10.0419 3.51724C10.2333 3.02295 10.5068 2.65351 10.8551 2.3778L10.2344 1.59375L9.61367 0.809704C8.96195 1.32565 8.48547 1.99788 8.17681 2.79526L9.10938 3.15625ZM10.2344 1.59375L10.8472 2.38397C11.1678 2.13533 11.5518 2 12.0469 2V1V0C11.1461 0 10.3218 0.260499 9.62155 0.80353L10.2344 1.59375ZM12.0469 1V2C12.5349 2 13.0562 2.08398 13.6149 2.26421L13.9219 1.3125L14.2289 0.360791C13.4959 0.124352 12.7672 0 12.0469 0V1ZM13.9219 1.3125L13.6149 2.26421C14.1892 2.44947 14.6508 2.67178 15.0148 2.91998L15.5781 2.09375L16.1415 1.26752C15.5888 0.890719 14.9462 0.592192 14.2289 0.360791L13.9219 1.3125Z" fill="#2F2F2F" mask="url(#path-1-outside-1_1_8844)"/>
</svg>
