<svg width="26" height="21" viewBox="0 0 26 21" fill="none" xmlns="http://www.w3.org/2000/svg">
<mask id="path-1-outside-1_1_8844" maskUnits="userSpaceOnUse" x="-0.640938" y="-0.570618" width="27" height="22" fill="black">
<rect fill="white" x="-0.640938" y="-0.570618" width="27" height="22"/>
<path d="M12.0544 2.96063L11.1169 4.03876C9.89812 3.13251 8.695 2.67938 7.5075 2.67938C6.72625 2.67938 6.05437 2.86688 5.49187 3.24188C4.92937 3.61688 4.49969 4.07001 4.20281 4.60126C3.92156 5.13251 3.695 5.80438 3.52312 6.61688C3.36687 7.42938 3.26531 8.13251 3.21844 8.72626C3.18719 9.32001 3.17156 10.0153 3.17156 10.8122C3.17156 11.5934 3.31219 12.4841 3.59344 13.4841C3.89031 14.4684 4.3825 15.3903 5.07 16.2497C5.7575 17.1091 6.55437 17.5388 7.46062 17.5388C8.445 17.5388 9.95281 17.0231 11.9841 15.9919C12.1872 16.2888 12.4528 16.7809 12.7809 17.4684C10.8122 18.8278 9.05437 19.5075 7.5075 19.5075C6.5075 19.5075 5.59344 19.2028 4.76531 18.5934C3.93719 17.9841 3.28094 17.2106 2.79656 16.2731C2.32781 15.3356 1.96062 14.3591 1.695 13.3434C1.445 12.3122 1.32 11.3356 1.32 10.4138C1.32 9.39813 1.39812 8.41376 1.55437 7.46063C1.71062 6.49188 1.97625 5.52313 2.35125 4.55438C2.72625 3.58563 3.28875 2.80438 4.03875 2.21063C4.80437 1.61688 5.71062 1.32001 6.7575 1.32001C7.66375 1.32001 8.60125 1.47626 9.57 1.78876C10.5387 2.10126 11.3669 2.49188 12.0544 2.96063ZM23.1872 2.96063L22.2497 4.03876C21.0309 3.13251 19.8278 2.67938 18.6403 2.67938C17.8591 2.67938 17.1872 2.86688 16.6247 3.24188C16.0622 3.61688 15.6325 4.07001 15.3356 4.60126C15.0544 5.13251 14.8278 5.80438 14.6559 6.61688C14.4997 7.42938 14.3981 8.13251 14.3512 8.72626C14.32 9.32001 14.3044 10.0153 14.3044 10.8122C14.3044 11.5934 14.445 12.4841 14.7262 13.4841C15.0231 14.4684 15.5153 15.3903 16.2028 16.2497C16.8903 17.1091 17.6872 17.5388 18.5934 17.5388C19.5778 17.5388 21.0856 17.0231 23.1169 15.9919C23.32 16.2888 23.5856 16.7809 23.9137 17.4684C21.945 18.8278 20.1872 19.5075 18.6403 19.5075C17.6403 19.5075 16.7262 19.2028 15.8981 18.5934C15.07 17.9841 14.4137 17.2106 13.9294 16.2731C13.4606 15.3356 13.0934 14.3591 12.8278 13.3434C12.5778 12.3122 12.4528 11.3356 12.4528 10.4138C12.4528 9.39813 12.5309 8.41376 12.6872 7.46063C12.8434 6.49188 13.1091 5.52313 13.4841 4.55438C13.8591 3.58563 14.4216 2.80438 15.1716 2.21063C15.9372 1.61688 16.8434 1.32001 17.8903 1.32001C18.7966 1.32001 19.7341 1.47626 20.7028 1.78876C21.6716 2.10126 22.4997 2.49188 23.1872 2.96063Z"/>
</mask>
<path d="M12.0544 2.96063L11.1169 4.03876C9.89812 3.13251 8.695 2.67938 7.5075 2.67938C6.72625 2.67938 6.05437 2.86688 5.49187 3.24188C4.92937 3.61688 4.49969 4.07001 4.20281 4.60126C3.92156 5.13251 3.695 5.80438 3.52312 6.61688C3.36687 7.42938 3.26531 8.13251 3.21844 8.72626C3.18719 9.32001 3.17156 10.0153 3.17156 10.8122C3.17156 11.5934 3.31219 12.4841 3.59344 13.4841C3.89031 14.4684 4.3825 15.3903 5.07 16.2497C5.7575 17.1091 6.55437 17.5388 7.46062 17.5388C8.445 17.5388 9.95281 17.0231 11.9841 15.9919C12.1872 16.2888 12.4528 16.7809 12.7809 17.4684C10.8122 18.8278 9.05437 19.5075 7.5075 19.5075C6.5075 19.5075 5.59344 19.2028 4.76531 18.5934C3.93719 17.9841 3.28094 17.2106 2.79656 16.2731C2.32781 15.3356 1.96062 14.3591 1.695 13.3434C1.445 12.3122 1.32 11.3356 1.32 10.4138C1.32 9.39813 1.39812 8.41376 1.55437 7.46063C1.71062 6.49188 1.97625 5.52313 2.35125 4.55438C2.72625 3.58563 3.28875 2.80438 4.03875 2.21063C4.80437 1.61688 5.71062 1.32001 6.7575 1.32001C7.66375 1.32001 8.60125 1.47626 9.57 1.78876C10.5387 2.10126 11.3669 2.49188 12.0544 2.96063ZM23.1872 2.96063L22.2497 4.03876C21.0309 3.13251 19.8278 2.67938 18.6403 2.67938C17.8591 2.67938 17.1872 2.86688 16.6247 3.24188C16.0622 3.61688 15.6325 4.07001 15.3356 4.60126C15.0544 5.13251 14.8278 5.80438 14.6559 6.61688C14.4997 7.42938 14.3981 8.13251 14.3512 8.72626C14.32 9.32001 14.3044 10.0153 14.3044 10.8122C14.3044 11.5934 14.445 12.4841 14.7262 13.4841C15.0231 14.4684 15.5153 15.3903 16.2028 16.2497C16.8903 17.1091 17.6872 17.5388 18.5934 17.5388C19.5778 17.5388 21.0856 17.0231 23.1169 15.9919C23.32 16.2888 23.5856 16.7809 23.9137 17.4684C21.945 18.8278 20.1872 19.5075 18.6403 19.5075C17.6403 19.5075 16.7262 19.2028 15.8981 18.5934C15.07 17.9841 14.4137 17.2106 13.9294 16.2731C13.4606 15.3356 13.0934 14.3591 12.8278 13.3434C12.5778 12.3122 12.4528 11.3356 12.4528 10.4138C12.4528 9.39813 12.5309 8.41376 12.6872 7.46063C12.8434 6.49188 13.1091 5.52313 13.4841 4.55438C13.8591 3.58563 14.4216 2.80438 15.1716 2.21063C15.9372 1.61688 16.8434 1.32001 17.8903 1.32001C18.7966 1.32001 19.7341 1.47626 20.7028 1.78876C21.6716 2.10126 22.4997 2.49188 23.1872 2.96063Z" fill="#2F2F2F"/>
<path d="M12.0544 2.96063L13.0505 3.82679L14.0247 2.70641L12.798 1.87001L12.0544 2.96063ZM11.1169 4.03876L10.3292 5.09801L11.3105 5.8277L12.113 4.90491L11.1169 4.03876ZM4.20281 4.60126L3.05053 3.95733L3.04322 3.97041L3.03621 3.98365L4.20281 4.60126ZM3.52312 6.61688L2.2317 6.3437L2.22918 6.35563L2.22688 6.3676L3.52312 6.61688ZM3.21844 8.72626L1.90253 8.62237L1.90117 8.63961L1.90026 8.65688L3.21844 8.72626ZM3.59344 13.4841L2.32274 13.8415L2.32609 13.8534L2.32966 13.8652L3.59344 13.4841ZM11.9841 15.9919L13.0735 15.2465L12.4194 14.2905L11.3865 14.8149L11.9841 15.9919ZM12.7809 17.4684L13.5309 18.5547L14.4569 17.9153L13.9722 16.8999L12.7809 17.4684ZM2.79656 16.2731L1.61592 16.8635L1.61983 16.8713L1.62384 16.879L2.79656 16.2731ZM1.695 13.3434L0.412158 13.6544L0.414952 13.666L0.417954 13.6774L1.695 13.3434ZM1.55437 7.46063L2.85699 7.67418L2.85753 7.67082L1.55437 7.46063ZM4.03875 2.21063L3.22978 1.16749L3.21942 1.17569L4.03875 2.21063ZM12.0544 2.96063L11.0583 2.09448L10.1208 3.1726L11.1169 4.03876L12.113 4.90491L13.0505 3.82679L12.0544 2.96063ZM11.1169 4.03876L11.9045 2.97951C10.522 1.95147 9.04922 1.35938 7.5075 1.35938L7.5075 2.67938V3.99938C8.34078 3.99938 9.27425 4.31354 10.3292 5.09801L11.1169 4.03876ZM7.5075 2.67938L7.5075 1.35938C6.50729 1.35938 5.57123 1.60253 4.75967 2.14358L5.49187 3.24188L6.22408 4.34019C6.53752 4.13123 6.94521 3.99938 7.5075 3.99938V2.67938ZM5.49187 3.24188L4.75967 2.14358C4.04269 2.62156 3.46034 3.22399 3.05053 3.95733L4.20281 4.60126L5.3551 5.24518C5.53904 4.91602 5.81606 4.6122 6.22408 4.34019L5.49187 3.24188ZM4.20281 4.60126L3.03621 3.98365C2.68038 4.65577 2.42006 5.4533 2.2317 6.3437L3.52312 6.61688L4.81455 6.89007C4.96994 6.15547 5.16275 5.60924 5.36941 5.21887L4.20281 4.60126ZM3.52312 6.61688L2.22688 6.3676C2.06465 7.21119 1.95441 7.9652 1.90253 8.62237L3.21844 8.72626L4.53434 8.83014C4.57621 8.29982 4.6691 7.64757 4.81937 6.86616L3.52312 6.61688ZM3.21844 8.72626L1.90026 8.65688C1.86747 9.27997 1.85156 9.9994 1.85156 10.8122H3.17156H4.49156C4.49156 10.0312 4.50691 9.36005 4.53661 8.79564L3.21844 8.72626ZM3.17156 10.8122H1.85156C1.85156 11.7465 2.01883 12.7609 2.32274 13.8415L3.59344 13.4841L4.86414 13.1267C4.60555 12.2073 4.49156 11.4404 4.49156 10.8122H3.17156ZM3.59344 13.4841L2.32966 13.8652C2.67854 15.022 3.25396 16.0927 4.03925 17.0743L5.07 16.2497L6.10075 15.4251C5.51104 14.688 5.10209 13.9149 4.85721 13.1029L3.59344 13.4841ZM5.07 16.2497L4.03925 17.0743C4.91781 18.1725 6.06701 18.8588 7.46062 18.8588V17.5388V16.2188C7.04174 16.2188 6.59719 16.0457 6.10075 15.4251L5.07 16.2497ZM7.46062 17.5388V18.8588C8.7898 18.8588 10.5478 18.2014 12.5816 17.1689L11.9841 15.9919L11.3865 14.8149C9.35782 15.8448 8.1002 16.2188 7.46062 16.2188V17.5388ZM11.9841 15.9919L10.8947 16.7373C11.0366 16.9447 11.266 17.3588 11.5897 18.037L12.7809 17.4684L13.9722 16.8999C13.6397 16.2031 13.3378 15.6328 13.0735 15.2465L11.9841 15.9919ZM12.7809 17.4684L12.0309 16.3822C10.1705 17.6668 8.67656 18.1875 7.5075 18.1875V19.5075L7.5075 20.8275C9.43219 20.8275 11.4538 19.9889 13.5309 18.5547L12.7809 17.4684ZM7.5075 19.5075V18.1875C6.79738 18.1875 6.1559 17.9778 5.54765 17.5303L4.76531 18.5934L3.98297 19.6566C5.03097 20.4278 6.21762 20.8275 7.5075 20.8275L7.5075 19.5075ZM4.76531 18.5934L5.54765 17.5303C4.88749 17.0445 4.36298 16.4292 3.96928 15.6672L2.79656 16.2731L1.62384 16.879C2.1989 17.9921 2.98688 18.9236 3.98297 19.6566L4.76531 18.5934ZM2.79656 16.2731L3.97721 15.6828C3.54945 14.8273 3.21455 13.9367 2.97205 13.0094L1.695 13.3434L0.417954 13.6774C0.706702 14.7815 1.10617 15.844 1.61592 16.8635L2.79656 16.2731ZM1.695 13.3434L2.97784 13.0325C2.7489 12.0881 2.64 11.2165 2.64 10.4138H1.32H-3.57628e-07C-3.57628e-07 11.4548 0.1411 12.5363 0.412158 13.6544L1.695 13.3434ZM1.32 10.4138H2.64C2.64 9.46601 2.71289 8.55319 2.85699 7.67418L1.55437 7.46063L0.251762 7.24709C0.0833626 8.27433 -3.57628e-07 9.33026 -3.57628e-07 10.4138H1.32ZM1.55437 7.46063L2.85753 7.67082C2.99827 6.79828 3.23859 5.91864 3.58224 5.03089L2.35125 4.55438L1.12026 4.07787C0.713905 5.12762 0.422984 6.18549 0.251216 7.25045L1.55437 7.46063ZM2.35125 4.55438L3.58224 5.03089C3.87981 4.26218 4.30835 3.68077 4.85808 3.24557L4.03875 2.21063L3.21942 1.17569C2.26915 1.92799 1.57269 2.90909 1.12026 4.07787L2.35125 4.55438ZM4.03875 2.21063L4.84768 3.25372C5.36276 2.85427 5.97841 2.64001 6.7575 2.64001L6.7575 1.32001V7.27177e-06C5.44284 7.27177e-06 4.24599 0.379491 3.22982 1.16754L4.03875 2.21063ZM6.7575 1.32001L6.7575 2.64001C7.51038 2.64001 8.31101 2.76961 9.16476 3.04501L9.57 1.78876L9.97524 0.532502C8.89149 0.182902 7.81712 7.27177e-06 6.7575 7.27177e-06V1.32001ZM9.57 1.78876L9.16476 3.04501C10.0391 3.32706 10.7478 3.66738 11.3108 4.05125L12.0544 2.96063L12.798 1.87001C11.986 1.31638 11.0384 0.875451 9.97524 0.532502L9.57 1.78876ZM23.1872 2.96063L24.1833 3.82679L25.1575 2.70641L23.9308 1.87001L23.1872 2.96063ZM22.2497 4.03876L21.462 5.09801L22.4433 5.8277L23.2458 4.90491L22.2497 4.03876ZM15.3356 4.60126L14.1833 3.95733L14.176 3.97041L14.169 3.98365L15.3356 4.60126ZM14.6559 6.61688L13.3645 6.3437L13.362 6.35563L13.3597 6.3676L14.6559 6.61688ZM14.3512 8.72626L13.0353 8.62237L13.034 8.63961L13.0331 8.65688L14.3512 8.72626ZM14.7262 13.4841L13.4556 13.8415L13.4589 13.8534L13.4625 13.8652L14.7262 13.4841ZM23.1169 15.9919L24.2063 15.2465L23.5522 14.2905L22.5193 14.8149L23.1169 15.9919ZM23.9137 17.4684L24.6638 18.5547L25.5897 17.9153L25.105 16.8999L23.9137 17.4684ZM13.9294 16.2731L12.7487 16.8635L12.7526 16.8713L12.7567 16.879L13.9294 16.2731ZM12.8278 13.3434L11.545 13.6544L11.5478 13.666L11.5508 13.6774L12.8278 13.3434ZM12.6872 7.46063L13.9898 7.67418L13.9903 7.67082L12.6872 7.46063ZM15.1716 2.21063L14.3626 1.16749L14.3522 1.17569L15.1716 2.21063ZM23.1872 2.96063L22.1911 2.09448L21.2536 3.1726L22.2497 4.03876L23.2458 4.90491L24.1833 3.82679L23.1872 2.96063ZM22.2497 4.03876L23.0373 2.97951C21.6548 1.95147 20.182 1.35938 18.6403 1.35938V2.67938V3.99938C19.4736 3.99938 20.4071 4.31354 21.462 5.09801L22.2497 4.03876ZM18.6403 2.67938V1.35938C17.6401 1.35938 16.704 1.60253 15.8925 2.14358L16.6247 3.24188L17.3569 4.34019C17.6703 4.13123 18.078 3.99938 18.6403 3.99938V2.67938ZM16.6247 3.24188L15.8925 2.14358C15.1755 2.62156 14.5931 3.22399 14.1833 3.95733L15.3356 4.60126L16.4879 5.24518C16.6719 4.91602 16.9489 4.6122 17.3569 4.34019L16.6247 3.24188ZM15.3356 4.60126L14.169 3.98365C13.8132 4.65577 13.5529 5.4533 13.3645 6.3437L14.6559 6.61688L15.9474 6.89007C16.1028 6.15547 16.2956 5.60924 16.5022 5.21887L15.3356 4.60126ZM14.6559 6.61688L13.3597 6.3676C13.1975 7.21119 13.0872 7.9652 13.0353 8.62237L14.3512 8.72626L15.6672 8.83014C15.709 8.29982 15.8019 7.64757 15.9522 6.86616L14.6559 6.61688ZM14.3512 8.72626L13.0331 8.65688C13.0003 9.27997 12.9844 9.9994 12.9844 10.8122L14.3044 10.8122H15.6244C15.6244 10.0312 15.6397 9.36005 15.6694 8.79564L14.3512 8.72626ZM14.3044 10.8122L12.9844 10.8122C12.9844 11.7465 13.1516 12.7609 13.4556 13.8415L14.7262 13.4841L15.9969 13.1267C15.7384 12.2073 15.6244 11.4404 15.6244 10.8122H14.3044ZM14.7262 13.4841L13.4625 13.8652C13.8113 15.022 14.3868 16.0927 15.1721 17.0743L16.2028 16.2497L17.2336 15.4251C16.6438 14.688 16.2349 13.9149 15.99 13.1029L14.7262 13.4841ZM16.2028 16.2497L15.1721 17.0743C16.0506 18.1725 17.1998 18.8588 18.5934 18.8588V17.5388V16.2188C18.1746 16.2188 17.73 16.0457 17.2336 15.4251L16.2028 16.2497ZM18.5934 17.5388V18.8588C19.9226 18.8588 21.6806 18.2014 23.7144 17.1689L23.1169 15.9919L22.5193 14.8149C20.4906 15.8448 19.233 16.2188 18.5934 16.2188V17.5388ZM23.1169 15.9919L22.0275 16.7373C22.1694 16.9447 22.3988 17.3588 22.7225 18.037L23.9137 17.4684L25.105 16.8999C24.7725 16.2031 24.4706 15.6328 24.2063 15.2465L23.1169 15.9919ZM23.9137 17.4684L23.1637 16.3822C21.3033 17.6668 19.8094 18.1875 18.6403 18.1875V19.5075V20.8275C20.565 20.8275 22.5867 19.9889 24.6638 18.5547L23.9137 17.4684ZM18.6403 19.5075V18.1875C17.9302 18.1875 17.2887 17.9778 16.6805 17.5303L15.8981 18.5934L15.1158 19.6566C16.1638 20.4278 17.3504 20.8275 18.6403 20.8275V19.5075ZM15.8981 18.5934L16.6805 17.5303C16.0203 17.0445 15.4958 16.4292 15.1021 15.6672L13.9294 16.2731L12.7567 16.879C13.3317 17.9921 14.1197 18.9236 15.1158 19.6566L15.8981 18.5934ZM13.9294 16.2731L15.11 15.6828C14.6823 14.8273 14.3474 13.9367 14.1049 13.0094L12.8278 13.3434L11.5508 13.6774C11.8395 14.7815 12.239 15.844 12.7487 16.8635L13.9294 16.2731ZM12.8278 13.3434L14.1107 13.0325C13.8817 12.0881 13.7728 11.2165 13.7728 10.4138H12.4528H11.1328C11.1328 11.4548 11.2739 12.5363 11.545 13.6544L12.8278 13.3434ZM12.4528 10.4138H13.7728C13.7728 9.46601 13.8457 8.55319 13.9898 7.67418L12.6872 7.46063L11.3846 7.24709C11.2162 8.27433 11.1328 9.33026 11.1328 10.4138H12.4528ZM12.6872 7.46063L13.9903 7.67082C14.1311 6.79828 14.3714 5.91864 14.7151 5.03089L13.4841 4.55438L12.2531 4.07787C11.8467 5.12762 11.5558 6.18549 11.384 7.25045L12.6872 7.46063ZM13.4841 4.55438L14.7151 5.03089C15.0126 4.26218 15.4412 3.68077 15.9909 3.24557L15.1716 2.21063L14.3522 1.17569C13.402 1.92799 12.7055 2.90909 12.2531 4.07787L13.4841 4.55438ZM15.1716 2.21063L15.9805 3.25372C16.4956 2.85427 17.1112 2.64001 17.8903 2.64001V1.32001V7.27177e-06C16.5757 7.27177e-06 15.3788 0.379491 14.3626 1.16754L15.1716 2.21063ZM17.8903 1.32001V2.64001C18.6432 2.64001 19.4438 2.76961 20.2976 3.04501L20.7028 1.78876L21.1081 0.532502C20.0243 0.182902 18.9499 7.27177e-06 17.8903 7.27177e-06V1.32001ZM20.7028 1.78876L20.2976 3.04501C21.1719 3.32706 21.8806 3.66738 22.4436 4.05125L23.1872 2.96063L23.9308 1.87001C23.1188 1.31638 22.1712 0.875451 21.1081 0.532502L20.7028 1.78876Z" fill="#2F2F2F" mask="url(#path-1-outside-1_1_8844)"/>
</svg>
