<svg width="163" height="133" viewBox="0 0 163 133" fill="none" xmlns="http://www.w3.org/2000/svg">
<mask id="path-1-outside-1_1_8844" maskUnits="userSpaceOnUse" x="-0.925781" y="-0.492188" width="163" height="133" fill="black">
<rect fill="white" x="-0.925781" y="-0.492188" width="163" height="133"/>
<path d="M76.1953 20.1172L70.4141 26.7656C62.8984 21.1771 55.4792 18.3828 48.1563 18.3828C43.3385 18.3828 39.1953 19.5391 35.7266 21.8516C32.2578 24.1641 29.6081 26.9583 27.7773 30.2344C26.043 33.5104 24.6458 37.6536 23.5859 42.6641C22.6224 47.6745 21.9961 52.0104 21.707 55.6719C21.5143 59.3333 21.418 63.6211 21.418 68.5352C21.418 73.3529 22.2852 78.8451 24.0195 85.0117C25.8503 91.082 28.8854 96.7669 33.125 102.066C37.3646 107.366 42.2786 110.016 47.8672 110.016C53.9375 110.016 63.2357 106.836 75.7617 100.477C77.0143 102.307 78.6523 105.342 80.6758 109.582C68.5352 117.965 57.6953 122.156 48.1563 122.156C41.9896 122.156 36.3529 120.277 31.2461 116.52C26.1393 112.762 22.0924 107.992 19.1055 102.211C16.2148 96.4297 13.9505 90.4076 12.3125 84.1445C10.7708 77.7852 10 71.763 10 66.0781C10 59.8151 10.4818 53.7448 11.4453 47.8672C12.4089 41.8932 14.0469 35.9193 16.3594 29.9453C18.6719 23.9714 22.1406 19.1536 26.7656 15.4922C31.487 11.8307 37.0755 10 43.5312 10C49.1198 10 54.901 10.9635 60.875 12.8906C66.849 14.8177 71.9557 17.2266 76.1953 20.1172ZM144.848 20.1172L139.066 26.7656C131.551 21.1771 124.132 18.3828 116.809 18.3828C111.991 18.3828 107.848 19.5391 104.379 21.8516C100.91 24.1641 98.2604 26.9583 96.4297 30.2344C94.6953 33.5104 93.2982 37.6536 92.2383 42.6641C91.2747 47.6745 90.6484 52.0104 90.3594 55.6719C90.1667 59.3333 90.0703 63.6211 90.0703 68.5352C90.0703 73.3529 90.9375 78.8451 92.6719 85.0117C94.5026 91.082 97.5378 96.7669 101.777 102.066C106.017 107.366 110.931 110.016 116.52 110.016C122.59 110.016 131.888 106.836 144.414 100.477C145.667 102.307 147.305 105.342 149.328 109.582C137.188 117.965 126.348 122.156 116.809 122.156C110.642 122.156 105.005 120.277 99.8984 116.52C94.7917 112.762 90.7448 107.992 87.7578 102.211C84.8672 96.4297 82.6029 90.4076 80.9648 84.1445C79.4232 77.7852 78.6523 71.763 78.6523 66.0781C78.6523 59.8151 79.1341 53.7448 80.0977 47.8672C81.0612 41.8932 82.6992 35.9193 85.0117 29.9453C87.3242 23.9714 90.793 19.1536 95.418 15.4922C100.139 11.8307 105.728 10 112.184 10C117.772 10 123.553 10.9635 129.527 12.8906C135.501 14.8177 140.608 17.2266 144.848 20.1172Z"/>
</mask>
<path d="M76.1953 20.1172L70.4141 26.7656C62.8984 21.1771 55.4792 18.3828 48.1563 18.3828C43.3385 18.3828 39.1953 19.5391 35.7266 21.8516C32.2578 24.1641 29.6081 26.9583 27.7773 30.2344C26.043 33.5104 24.6458 37.6536 23.5859 42.6641C22.6224 47.6745 21.9961 52.0104 21.707 55.6719C21.5143 59.3333 21.418 63.6211 21.418 68.5352C21.418 73.3529 22.2852 78.8451 24.0195 85.0117C25.8503 91.082 28.8854 96.7669 33.125 102.066C37.3646 107.366 42.2786 110.016 47.8672 110.016C53.9375 110.016 63.2357 106.836 75.7617 100.477C77.0143 102.307 78.6523 105.342 80.6758 109.582C68.5352 117.965 57.6953 122.156 48.1563 122.156C41.9896 122.156 36.3529 120.277 31.2461 116.52C26.1393 112.762 22.0924 107.992 19.1055 102.211C16.2148 96.4297 13.9505 90.4076 12.3125 84.1445C10.7708 77.7852 10 71.763 10 66.0781C10 59.8151 10.4818 53.7448 11.4453 47.8672C12.4089 41.8932 14.0469 35.9193 16.3594 29.9453C18.6719 23.9714 22.1406 19.1536 26.7656 15.4922C31.487 11.8307 37.0755 10 43.5312 10C49.1198 10 54.901 10.9635 60.875 12.8906C66.849 14.8177 71.9557 17.2266 76.1953 20.1172ZM144.848 20.1172L139.066 26.7656C131.551 21.1771 124.132 18.3828 116.809 18.3828C111.991 18.3828 107.848 19.5391 104.379 21.8516C100.91 24.1641 98.2604 26.9583 96.4297 30.2344C94.6953 33.5104 93.2982 37.6536 92.2383 42.6641C91.2747 47.6745 90.6484 52.0104 90.3594 55.6719C90.1667 59.3333 90.0703 63.6211 90.0703 68.5352C90.0703 73.3529 90.9375 78.8451 92.6719 85.0117C94.5026 91.082 97.5378 96.7669 101.777 102.066C106.017 107.366 110.931 110.016 116.52 110.016C122.59 110.016 131.888 106.836 144.414 100.477C145.667 102.307 147.305 105.342 149.328 109.582C137.188 117.965 126.348 122.156 116.809 122.156C110.642 122.156 105.005 120.277 99.8984 116.52C94.7917 112.762 90.7448 107.992 87.7578 102.211C84.8672 96.4297 82.6029 90.4076 80.9648 84.1445C79.4232 77.7852 78.6523 71.763 78.6523 66.0781C78.6523 59.8151 79.1341 53.7448 80.0977 47.8672C81.0612 41.8932 82.6992 35.9193 85.0117 29.9453C87.3242 23.9714 90.793 19.1536 95.418 15.4922C100.139 11.8307 105.728 10 112.184 10C117.772 10 123.553 10.9635 129.527 12.8906C135.501 14.8177 140.608 17.2266 144.848 20.1172Z" fill="#2F2F2F"/>
<path d="M76.1953 20.1172L83.7414 26.679L91.122 18.1913L81.8287 11.8549L76.1953 20.1172ZM70.4141 26.7656L64.447 34.7902L71.8812 40.3182L77.9601 33.3274L70.4141 26.7656ZM27.7773 30.2344L19.0479 25.3562L18.9926 25.4552L18.9395 25.5555L27.7773 30.2344ZM23.5859 42.6641L13.8024 40.5945L13.7833 40.6849L13.7659 40.7756L23.5859 42.6641ZM21.707 55.6719L11.738 54.8848L11.7277 55.0155L11.7209 55.1463L21.707 55.6719ZM24.0195 85.0117L14.393 87.7192L14.4184 87.8094L14.4455 87.8991L24.0195 85.0117ZM75.7617 100.477L84.0148 94.8297L79.0595 87.5874L71.2348 91.5599L75.7617 100.477ZM80.6758 109.582L86.3577 117.811L93.3722 112.968L89.7006 105.275L80.6758 109.582ZM19.1055 102.211L10.1612 106.683L10.1908 106.742L10.2212 106.801L19.1055 102.211ZM12.3125 84.1445L2.594 86.5005L2.61517 86.5879L2.63791 86.6748L12.3125 84.1445ZM11.4453 47.8672L21.3136 49.4849L21.3157 49.4722L21.3177 49.4595L11.4453 47.8672ZM26.7656 15.4922L20.6374 7.58999L20.5978 7.62066L20.5586 7.65173L26.7656 15.4922ZM76.1953 20.1172L68.6493 13.5554L62.868 20.2038L70.4141 26.7656L77.9601 33.3274L83.7414 26.679L76.1953 20.1172ZM70.4141 26.7656L76.3811 18.741C67.6247 12.2299 58.1627 8.38281 48.1562 8.38281L48.1563 18.3828V28.3828C52.7957 28.3828 58.1721 30.1243 64.447 34.7902L70.4141 26.7656ZM48.1563 18.3828L48.1562 8.38281C41.6797 8.38281 35.5352 9.96066 30.1796 13.5311L35.7266 21.8516L41.2736 30.1721C42.8555 29.1175 44.9974 28.3828 48.1563 28.3828V18.3828ZM35.7266 21.8516L30.1796 13.5311C25.5405 16.6237 21.7342 20.5491 19.0479 25.3562L27.7773 30.2344L36.5068 35.1126C37.4819 33.3676 38.9751 31.7044 41.2736 30.1721L35.7266 21.8516ZM27.7773 30.2344L18.9395 25.5555C16.6401 29.8988 14.9872 34.9939 13.8024 40.5945L23.5859 42.6641L33.3694 44.7337C34.3045 40.3134 35.4459 37.122 36.6152 34.9133L27.7773 30.2344ZM23.5859 42.6641L13.7659 40.7756C12.757 46.0215 12.065 50.7429 11.738 54.8848L21.707 55.6719L31.676 56.4589C31.9271 53.2779 32.4878 49.3274 33.406 44.5525L23.5859 42.6641ZM21.707 55.6719L11.7209 55.1463C11.5164 59.03 11.418 63.5005 11.418 68.5352H21.418H31.418C31.418 63.7417 31.5122 59.6367 31.6932 56.1975L21.707 55.6719ZM21.418 68.5352H11.418C11.418 74.5123 12.487 80.9421 14.393 87.7192L24.0195 85.0117L33.646 82.3043C32.0833 76.748 31.418 72.1934 31.418 68.5352H21.418ZM24.0195 85.0117L14.4455 87.8991C16.6701 95.2757 20.3359 102.088 25.3163 108.313L33.125 102.066L40.9337 95.8195C37.4349 91.446 35.0304 86.8884 33.5936 82.1243L24.0195 85.0117ZM33.125 102.066L25.3163 108.313C31.0033 115.422 38.5865 120.016 47.8672 120.016V110.016V100.016C45.9708 100.016 43.7259 99.3097 40.9337 95.8195L33.125 102.066ZM47.8672 110.016V120.016C56.5496 120.016 67.7432 115.762 80.2886 109.393L75.7617 100.477L71.2348 91.5599C58.7282 97.9094 51.3254 100.016 47.8672 100.016V110.016ZM75.7617 100.477L67.5086 106.123C68.2976 107.276 69.6611 109.72 71.651 113.889L80.6758 109.582L89.7006 105.275C87.6436 100.965 85.731 97.3381 84.0148 94.8297L75.7617 100.477ZM80.6758 109.582L74.9939 101.353C63.6741 109.169 54.8331 112.156 48.1563 112.156V122.156L48.1563 132.156C60.5575 132.156 73.3962 126.761 86.3577 117.811L80.6758 109.582ZM48.1563 122.156V112.156C44.1856 112.156 40.6139 110.997 37.1729 108.465L31.2461 116.52L25.3193 124.574C32.0918 129.557 39.7935 132.156 48.1563 132.156L48.1563 122.156ZM31.2461 116.52L37.1729 108.465C33.3386 105.644 30.2897 102.072 27.9897 97.6207L19.1055 102.211L10.2212 106.801C13.8952 113.912 18.94 119.88 25.3193 124.574L31.2461 116.52ZM19.1055 102.211L28.0497 97.7388C25.4697 92.5787 23.4499 87.2075 21.9871 81.6143L12.3125 84.1445L2.63791 86.6748C4.45111 93.6076 6.95998 100.281 10.1612 106.683L19.1055 102.211ZM12.3125 84.1445L22.031 81.7885C20.6489 76.0872 20 70.8606 20 66.0781H10H0C0 72.6654 0.892806 79.4831 2.594 86.5005L12.3125 84.1445ZM10 66.0781H20C20 60.3293 20.4421 54.8011 21.3136 49.4849L11.4453 47.8672L1.57704 46.2494C0.521453 52.6885 0 59.3009 0 66.0781H10ZM11.4453 47.8672L21.3177 49.4595C22.1637 44.2144 23.6101 38.9156 25.6851 33.5553L16.3594 29.9453L7.03369 26.3354C4.48366 32.923 2.654 39.5721 1.5729 46.2749L11.4453 47.8672ZM16.3594 29.9453L25.6851 33.5553C27.4109 29.0967 29.8649 25.7929 32.9727 23.3326L26.7656 15.4922L20.5586 7.65173C14.4163 12.5143 9.93281 18.846 7.03369 26.3354L16.3594 29.9453ZM26.7656 15.4922L32.8939 23.3944C35.7171 21.2049 39.1042 20 43.5313 20L43.5312 10V0C35.0469 0 27.2568 2.45655 20.6374 7.58999L26.7656 15.4922ZM43.5312 10L43.5313 20C47.9579 20 52.7023 20.7617 57.805 22.4077L60.875 12.8906L63.945 3.37354C57.0998 1.1654 50.2817 0 43.5312 0V10ZM60.875 12.8906L57.805 22.4077C63.0638 24.1041 67.2655 26.1319 70.5619 28.3795L76.1953 20.1172L81.8287 11.8549C76.646 8.32125 70.6341 5.5313 63.945 3.37354L60.875 12.8906ZM144.848 20.1172L152.394 26.679L159.774 18.1913L150.481 11.8549L144.848 20.1172ZM139.066 26.7656L133.099 34.7902L140.534 40.3182L146.612 33.3274L139.066 26.7656ZM96.4297 30.2344L87.7003 25.3562L87.6449 25.4552L87.5918 25.5555L96.4297 30.2344ZM92.2383 42.6641L82.4548 40.5945L82.4357 40.6849L82.4182 40.7756L92.2383 42.6641ZM90.3594 55.6719L80.3904 54.8848L80.3801 55.0155L80.3732 55.1463L90.3594 55.6719ZM92.6719 85.0117L83.0454 87.7192L83.0707 87.8094L83.0978 87.8991L92.6719 85.0117ZM144.414 100.477L152.667 94.8297L147.712 87.5874L139.887 91.5599L144.414 100.477ZM149.328 109.582L155.01 117.811L162.025 112.968L158.353 105.275L149.328 109.582ZM87.7578 102.211L78.8135 106.683L78.8432 106.742L78.8736 106.801L87.7578 102.211ZM80.9648 84.1445L71.2463 86.5005L71.2675 86.5879L71.2903 86.6748L80.9648 84.1445ZM80.0977 47.8672L89.9659 49.4849L89.968 49.4722L89.9701 49.4595L80.0977 47.8672ZM95.418 15.4922L89.2897 7.58999L89.2502 7.62066L89.2109 7.65173L95.418 15.4922ZM144.848 20.1172L137.302 13.5554L131.52 20.2038L139.066 26.7656L146.612 33.3274L152.394 26.679L144.848 20.1172ZM139.066 26.7656L145.033 18.741C136.277 12.2299 126.815 8.38281 116.809 8.38281V18.3828V28.3828C121.448 28.3828 126.824 30.1243 133.099 34.7902L139.066 26.7656ZM116.809 18.3828V8.38281C110.332 8.38281 104.188 9.96066 98.8319 13.5311L104.379 21.8516L109.926 30.1721C111.508 29.1175 113.65 28.3828 116.809 28.3828V18.3828ZM104.379 21.8516L98.8319 13.5311C94.1929 16.6237 90.3865 20.5491 87.7003 25.3562L96.4297 30.2344L105.159 35.1126C106.134 33.3676 107.627 31.7044 109.926 30.1721L104.379 21.8516ZM96.4297 30.2344L87.5918 25.5555C85.2924 29.8988 83.6395 34.9939 82.4548 40.5945L92.2383 42.6641L102.022 44.7337C102.957 40.3134 104.098 37.122 105.268 34.9133L96.4297 30.2344ZM92.2383 42.6641L82.4182 40.7756C81.4094 46.0215 80.7174 50.7429 80.3904 54.8848L90.3594 55.6719L100.328 56.4589C100.579 53.2779 101.14 49.3274 102.058 44.5525L92.2383 42.6641ZM90.3594 55.6719L80.3732 55.1463C80.1688 59.03 80.0703 63.5005 80.0703 68.5352H90.0703H100.07C100.07 63.7417 100.165 59.6367 100.346 56.1975L90.3594 55.6719ZM90.0703 68.5352H80.0703C80.0703 74.5123 81.1393 80.9421 83.0454 87.7192L92.6719 85.0117L102.298 82.3043C100.736 76.748 100.07 72.1934 100.07 68.5352H90.0703ZM92.6719 85.0117L83.0978 87.8991C85.3225 95.2757 88.9883 102.088 93.9687 108.313L101.777 102.066L109.586 95.8195C106.087 91.446 103.683 86.8884 102.246 82.1243L92.6719 85.0117ZM101.777 102.066L93.9687 108.313C99.6556 115.422 107.239 120.016 116.52 120.016V110.016L116.52 100.016C114.623 100.016 112.378 99.3097 109.586 95.8195L101.777 102.066ZM116.52 110.016V120.016C125.202 120.016 136.396 115.762 148.941 109.393L144.414 100.477L139.887 91.5599C127.381 97.9094 119.978 100.016 116.52 100.016L116.52 110.016ZM144.414 100.477L136.161 106.123C136.95 107.276 138.313 109.72 140.303 113.889L149.328 109.582L158.353 105.275C156.296 100.965 154.383 97.3381 152.667 94.8297L144.414 100.477ZM149.328 109.582L143.646 101.353C132.326 109.169 123.485 112.156 116.809 112.156V122.156V132.156C129.21 132.156 142.049 126.761 155.01 117.811L149.328 109.582ZM116.809 122.156V112.156C112.838 112.156 109.266 110.997 105.825 108.465L99.8984 116.52L93.9716 124.574C100.744 129.557 108.446 132.156 116.809 132.156V122.156ZM99.8984 116.52L105.825 108.465C101.991 105.644 98.9421 102.072 96.6421 97.6207L87.7578 102.211L78.8736 106.801C82.5475 113.912 87.5924 119.88 93.9716 124.574L99.8984 116.52ZM87.7578 102.211L96.7021 97.7388C94.1221 92.5787 92.1023 87.2075 90.6394 81.6143L80.9648 84.1445L71.2903 86.6748C73.1035 93.6076 75.6123 100.281 78.8135 106.683L87.7578 102.211ZM80.9648 84.1445L90.6833 81.7885C89.3012 76.0872 88.6523 70.8606 88.6523 66.0781H78.6523H68.6523C68.6523 72.6654 69.5452 79.4831 71.2463 86.5005L80.9648 84.1445ZM78.6523 66.0781H88.6523C88.6523 60.3293 89.0944 54.8011 89.9659 49.4849L80.0977 47.8672L70.2294 46.2494C69.1738 52.6885 68.6523 59.3009 68.6523 66.0781H78.6523ZM80.0977 47.8672L89.9701 49.4595C90.8161 44.2144 92.2624 38.9156 94.3374 33.5553L85.0117 29.9453L75.686 26.3354C73.136 32.923 71.3063 39.5721 70.2252 46.2749L80.0977 47.8672ZM85.0117 29.9453L94.3374 33.5553C96.0633 29.0967 98.5172 25.7929 101.625 23.3326L95.418 15.4922L89.2109 7.65173C83.0687 12.5143 78.5852 18.846 75.686 26.3354L85.0117 29.9453ZM95.418 15.4922L101.546 23.3944C104.369 21.2049 107.757 20 112.184 20V10V0C103.699 0 95.9092 2.45655 89.2897 7.58999L95.418 15.4922ZM112.184 10V20C116.61 20 121.355 20.7617 126.457 22.4077L129.527 12.8906L132.597 3.37354C125.752 1.1654 118.934 0 112.184 0V10ZM129.527 12.8906L126.457 22.4077C131.716 24.1041 135.918 26.1319 139.214 28.3795L144.848 20.1172L150.481 11.8549C145.298 8.32125 139.286 5.5313 132.597 3.37354L129.527 12.8906Z" fill="#2F2F2F" mask="url(#path-1-outside-1_1_8844)"/>
</svg>
